<svg width="518" height="148" viewBox="0 0 518 148" fill="none" xmlns="http://www.w3.org/2000/svg">
<path d="M72.6143 31.8628C71.4559 33.881 70.4803 35.6545 70.4803 35.7769C70.4803 35.9603 96.3926 36.3884 96.3926 36.3884L96.5755 61.2793L96.6974 86.2314H126.939L132.06 74.1223C134.865 67.5174 138.462 59.0165 139.986 55.3471L142.852 48.6198L121.939 48.4364L100.965 48.3141V44.6446H122.793C139.986 44.6446 144.864 44.8281 145.717 45.4397C148.095 47.1521 148.156 46.8463 131.633 85.314C123.28 104.64 122.061 107.82 121.817 111.367C121.451 116.565 122.427 119.379 125.475 122.375C129.987 126.717 137.303 127.696 143.339 124.76C147.79 122.62 151.266 118.95 156.997 110.45C164.069 99.9306 167.91 96.6281 173.093 96.6281C173.703 96.6281 174.129 96.3835 174.007 96.1388C173.946 95.8942 173.276 94.3653 172.605 92.7752C171.934 91.1851 171.02 89.7785 170.593 89.595C169.435 89.1669 163.155 91.3074 160.289 93.1421C156.448 95.5884 153.765 98.6463 149.68 105.312C145.047 112.957 143.096 115.159 139.62 116.81C134.682 119.256 130.841 117.299 130.841 112.345C130.841 109.777 131.206 108.859 146.449 73.0826C151.57 60.9736 155.96 49.9041 156.204 48.5587C156.692 45.195 154.802 40.8529 152.119 39.2017C149.254 37.4281 147.485 37.3058 125.048 37.0612C114.013 36.9388 104.989 37.2446 105.111 37.0612C105.172 36.8777 105.233 35.838 105.233 35.5322C105.233 35.2264 110.721 34.0033 110.721 33.881C110.721 33.6975 109.867 32.3521 108.891 30.8231L107.001 28.1322H74.8092L72.6143 31.8628Z" fill="black"/>
<path d="M72.6143 31.8628C71.4559 33.881 70.4803 35.6545 70.4803 35.7769C70.4803 35.9603 96.3926 36.3884 96.3926 36.3884L96.5755 61.2793L96.6974 86.2314H126.939L132.06 74.1223C134.865 67.5174 138.462 59.0165 139.986 55.3471L142.852 48.6198L121.939 48.4364L100.965 48.3141V44.6446H122.793C139.986 44.6446 144.864 44.8281 145.717 45.4397C148.095 47.1521 148.156 46.8463 131.633 85.314C123.28 104.64 122.061 107.82 121.817 111.367C121.451 116.565 122.427 119.379 125.475 122.375C129.987 126.717 137.303 127.696 143.339 124.76C147.79 122.62 151.266 118.95 156.997 110.45C164.069 99.9306 167.91 96.6281 173.093 96.6281C173.703 96.6281 174.129 96.3835 174.007 96.1388C173.946 95.8942 173.276 94.3653 172.605 92.7752C171.934 91.1851 171.02 89.7785 170.593 89.595C169.435 89.1669 163.155 91.3074 160.289 93.1421C156.448 95.5884 153.765 98.6463 149.68 105.312C145.047 112.957 143.096 115.159 139.62 116.81C134.682 119.256 130.841 117.299 130.841 112.345C130.841 109.777 131.206 108.859 146.449 73.0826C151.57 60.9736 155.96 49.9041 156.204 48.5587C156.692 45.195 154.802 40.8529 152.119 39.2017C149.254 37.4281 147.485 37.3058 125.048 37.0612C114.013 36.9388 104.989 37.2446 105.111 37.0612C105.172 36.8777 105.233 35.838 105.233 35.5322C105.233 35.2264 110.721 34.0033 110.721 33.881C110.721 33.6975 109.867 32.3521 108.891 30.8231L107.001 28.1322H74.8092L72.6143 31.8628Z" fill="#1A1410"/>
<path d="M72.6143 31.8628C71.4559 33.881 70.4803 35.6545 70.4803 35.7769C70.4803 35.9603 96.3926 36.3884 96.3926 36.3884L96.5755 61.2793L96.6974 86.2314H126.939L132.06 74.1223C134.865 67.5174 138.462 59.0165 139.986 55.3471L142.852 48.6198L121.939 48.4364L100.965 48.3141V44.6446H122.793C139.986 44.6446 144.864 44.8281 145.717 45.4397C148.095 47.1521 148.156 46.8463 131.633 85.314C123.28 104.64 122.061 107.82 121.817 111.367C121.451 116.565 122.427 119.379 125.475 122.375C129.987 126.717 137.303 127.696 143.339 124.76C147.79 122.62 151.266 118.95 156.997 110.45C164.069 99.9306 167.91 96.6281 173.093 96.6281C173.703 96.6281 174.129 96.3835 174.007 96.1388C173.946 95.8942 173.276 94.3653 172.605 92.7752C171.934 91.1851 171.02 89.7785 170.593 89.595C169.435 89.1669 163.155 91.3074 160.289 93.1421C156.448 95.5884 153.765 98.6463 149.68 105.312C145.047 112.957 143.096 115.159 139.62 116.81C134.682 119.256 130.841 117.299 130.841 112.345C130.841 109.777 131.206 108.859 146.449 73.0826C151.57 60.9736 155.96 49.9041 156.204 48.5587C156.692 45.195 154.802 40.8529 152.119 39.2017C149.254 37.4281 147.485 37.3058 125.048 37.0612C114.013 36.9388 104.989 37.2446 105.111 37.0612C105.172 36.8777 105.233 35.838 105.233 35.5322C105.233 35.2264 110.721 34.0033 110.721 33.881C110.721 33.6975 109.867 32.3521 108.891 30.8231L107.001 28.1322H74.8092L72.6143 31.8628Z" fill="white"/>
<path d="M177.239 30.2115C173.032 31.6182 168.337 35.2264 165.837 39.0182C164.557 40.8529 161.204 48.0694 158.277 54.9801C149.193 76.4463 142.913 91.3686 141.998 93.3868L141.206 95.4049H146.083C150.839 95.4049 151.022 95.3438 151.631 93.7537C152.18 92.3471 156.692 81.4611 168.459 53.3289C173.52 41.1587 176.263 38.162 182.787 37.5504C191.018 36.7554 195.469 44.4 191.689 52.7173C188.762 59.0165 182.36 62.6248 171.081 64.2149C164.923 65.0711 164.618 65.1934 163.764 67.2727C163.033 68.9851 163.155 69.2297 165.715 71.7372C167.788 73.7554 169.13 75.957 171.386 81.3388C180.226 102.01 184.189 107.759 192.298 111.734L196.932 114.058L338.2 114.241L479.467 114.364L482.576 107.636L341.614 107.514C204.127 107.331 200.59 107.331 197.603 106.169C191.262 103.722 187.238 98.0347 181.812 83.7851C180.531 80.6049 178.763 76.5074 177.788 74.6727C176.751 72.838 176.019 71.3091 176.141 71.2479C176.202 71.2479 178.214 70.6975 180.531 70.0859C189.86 67.7008 196.749 62.6859 200.164 55.8363C201.627 52.7173 201.871 51.6165 201.871 46.7851C201.871 42.3206 201.627 40.7917 200.529 38.7735C198.7 35.2876 195.713 32.4744 192.42 31.0066C188.884 29.4165 181.019 28.9884 177.239 30.2115Z" fill="#B81C2E"/>
<path d="M91.454 39.6297C89.564 39.9355 88.2836 41.5868 88.0397 44.033L87.8568 46.1735L77.4919 46.4793C63.7127 46.9074 64.4443 46.2958 60.1764 59.4446C59.3838 61.7686 58.5912 63.6033 58.3473 63.6033C58.1035 63.6033 53.5917 64.276 48.3483 65.0711C34.2032 67.3339 33.8984 67.6397 33.8984 80.9719C33.8984 89.1669 33.8374 89.8397 32.74 90.2066C31.7035 90.5124 31.5206 91.3074 31.3376 95.5884C31.0328 102.316 31.4596 102.744 38.837 102.744C44.1413 102.744 44.2633 102.683 44.2633 101.276C44.2633 97.3008 47.3118 92.1025 51.0919 89.595C60.2984 83.4793 72.7972 88.9223 74.6263 99.7471L75.1141 102.438L81.455 102.316C84.9912 102.255 88.1617 102.377 88.4665 102.621C88.8323 102.866 89.442 103.783 89.8079 104.701L90.6005 106.413H114.927L115.476 104.395C115.903 102.744 116.269 102.438 118.098 102.255C120.232 102.071 120.293 101.949 122.732 96.1388L125.231 90.2066L109.013 89.9008L92.7344 89.595L92.5515 66.4165C92.3686 46.2958 92.4905 43.1157 93.2831 42.2595C94.5025 40.914 93.3441 39.2628 91.454 39.6297ZM88.1617 50.7603V89.9008H75.7848L73.346 87.6992C69.261 83.9686 64.8102 82.2562 59.5058 82.3173C54.0794 82.3173 50.5432 83.724 46.0314 87.4545C43.5316 89.595 42.739 89.962 40.788 89.7785C38.654 89.595 38.4711 89.4116 38.2882 87.5768C38.1053 85.8033 38.2273 85.6198 39.6296 85.6198C42.0684 85.6198 43.7755 83.5405 43.5316 80.8496C43.4097 79.6264 43.1049 78.6479 42.739 78.6479C42.4342 78.7091 41.2148 78.9537 40.0564 79.1983L38.0443 79.6264L38.4711 76.3851C38.715 74.5504 39.3247 72.6545 39.8734 72.043C40.6051 71.3702 44.0804 70.5752 51.5797 69.4744C57.4328 68.557 62.3714 67.6397 62.6152 67.395C62.7982 67.1504 63.7127 64.3372 64.6882 61.157C66.7612 54.0016 67.7367 52.0446 69.4439 51.3719C70.1755 51.0661 74.6873 50.8215 79.5039 50.8215L88.1617 50.7603Z" fill="white"/>
<path d="M70.3584 54.552C69.261 55.4082 65.7857 65.8049 66.3344 66.3554C66.5173 66.6 70.4194 66.233 74.9921 65.6215L83.2841 64.5206V53.8182H77.309C73.4679 53.8182 70.9681 54.0628 70.3584 54.552Z" fill="white"/>
<path d="M188.823 92.4694C191.079 96.8727 197.298 96.0165 200.59 96.0165H204.005V89.9008H187.543L188.823 92.4694Z" fill="#B81C2E"/>
<path d="M53.9575 91.7355C46.885 95.4661 45.2388 104.884 50.5432 110.572C54.5062 114.853 61.9446 115.648 66.7612 112.284C73.8947 107.331 73.163 95.5273 65.4808 91.7967C62.0055 90.1454 57.006 90.1454 53.9575 91.7355ZM63.8956 98.4628C65.5418 100.175 65.7247 100.664 65.4199 102.927C64.9931 106.23 62.7981 108.248 59.6277 108.248C56.7621 108.248 54.933 106.964 54.0185 104.334C52.0674 98.3405 59.3838 93.9372 63.8956 98.4628Z" fill="white"/>
<path d="M105.111 37.0612C105.172 36.8777 100.965 44.6446 100.965 44.6446H122.793C139.986 44.6446 144.864 44.8281 145.717 45.4397C148.095 47.1521 148.156 46.8463 131.633 85.314C123.28 104.64 122.061 107.82 121.817 111.367C121.451 116.565 122.427 119.379 125.475 122.375C129.987 126.717 137.303 127.696 143.339 124.76C147.79 122.62 151.266 118.95 156.997 110.45C164.069 99.9306 167.91 96.6281 173.093 96.6281C173.703 96.6281 174.129 96.3835 174.007 96.1388C173.946 95.8942 173.276 94.3653 172.605 92.7752C171.934 91.1851 171.02 89.7785 170.593 89.595C169.435 89.1669 163.155 91.3074 160.289 93.1421C156.448 95.5884 153.765 98.6463 149.68 105.312C145.047 112.957 143.096 115.159 139.62 116.81C134.682 119.256 130.841 117.299 130.841 112.345C130.841 109.777 131.206 108.859 146.449 73.0826C151.57 60.9736 155.96 49.9041 156.204 48.5587C156.692 45.195 154.802 40.8529 152.119 39.2017C149.254 37.4281 147.485 37.3058 125.048 37.0612C114.013 36.9388 104.989 37.2446 105.111 37.0612Z" fill="#B81C2E"/>
<path d="M214.28 64C214.013 64 213.8 63.9067 213.64 63.72C213.48 63.5333 213.427 63.2933 213.48 63L219 37C219.053 36.7067 219.2 36.4667 219.44 36.28C219.68 36.0933 219.933 36 220.2 36H238.88C239.173 36 239.387 36.0933 239.52 36.28C239.68 36.4667 239.733 36.7067 239.68 37L238.92 40.76C238.867 41.0533 238.72 41.2933 238.48 41.48C238.24 41.6667 237.973 41.76 237.68 41.76H224.92L223.76 47.16H235.6C235.893 47.16 236.12 47.2667 236.28 47.48C236.44 47.6667 236.493 47.9067 236.44 48.2L235.68 51.68C235.627 51.9467 235.48 52.1867 235.24 52.4C235.027 52.5867 234.773 52.68 234.48 52.68H222.6L221.44 58.24H234.48C234.773 58.24 234.987 58.3333 235.12 58.52C235.28 58.7067 235.333 58.9467 235.28 59.24L234.48 63C234.427 63.2933 234.28 63.5333 234.04 63.72C233.827 63.9067 233.573 64 233.28 64H214.28ZM237.388 64C237.041 64 236.814 63.8533 236.708 63.56C236.574 63.24 236.628 62.9467 236.868 62.68L248.868 49.56L242.708 37.28C242.574 36.9867 242.601 36.7067 242.788 36.44C242.974 36.1467 243.254 36 243.628 36H248.788C249.268 36 249.601 36.1067 249.788 36.32C249.974 36.5333 250.094 36.7067 250.148 36.84L253.868 44.36L260.508 36.84C260.641 36.7067 260.828 36.5333 261.068 36.32C261.334 36.1067 261.708 36 262.188 36H267.868C268.214 36 268.441 36.16 268.548 36.48C268.654 36.7733 268.601 37.0533 268.388 37.32L256.988 50.52L263.108 62.76C263.241 63.0267 263.214 63.3067 263.028 63.6C262.868 63.8667 262.588 64 262.188 64H257.068C256.588 64 256.254 63.8933 256.068 63.68C255.881 63.4667 255.761 63.3067 255.708 63.2L251.988 55.88L245.228 63.2C245.121 63.3067 244.948 63.4667 244.708 63.68C244.468 63.8933 244.094 64 243.588 64H237.388ZM267.405 64C267.138 64 266.925 63.9067 266.765 63.72C266.605 63.5333 266.552 63.2933 266.605 63L272.125 37C272.178 36.7067 272.325 36.4667 272.565 36.28C272.805 36.0933 273.058 36 273.325 36H283.965C285.592 36 287.058 36.1867 288.365 36.56C289.698 36.9333 290.805 37.5067 291.685 38.28C292.565 39.0533 293.178 40.0267 293.525 41.2C293.872 42.3467 293.885 43.6933 293.565 45.24C292.898 48.3067 291.538 50.5733 289.485 52.04C287.458 53.5067 284.725 54.24 281.285 54.24H275.885L274.045 63C273.992 63.2933 273.845 63.5333 273.605 63.72C273.392 63.9067 273.138 64 272.845 64H267.405ZM276.925 48.72H281.525C282.618 48.72 283.592 48.4267 284.445 47.84C285.325 47.2533 285.898 46.36 286.165 45.16C286.298 44.4667 286.325 43.8533 286.245 43.32C286.165 42.7867 285.885 42.36 285.405 42.04C284.952 41.72 284.245 41.56 283.285 41.56H278.485L276.925 48.72ZM294.996 64C294.703 64 294.476 63.9067 294.316 63.72C294.183 63.5333 294.143 63.2933 294.196 63L299.716 37C299.77 36.7067 299.916 36.4667 300.156 36.28C300.396 36.0933 300.663 36 300.956 36H311.836C315.276 36 317.81 36.8 319.436 38.4C321.09 39.9733 321.61 42.2133 320.996 45.12C320.596 47.0133 319.796 48.6133 318.596 49.92C317.423 51.2267 316.023 52.2133 314.396 52.88L317.796 62.72C317.823 62.8 317.836 62.8667 317.836 62.92C317.836 62.9733 317.823 63.0533 317.796 63.16C317.77 63.3733 317.65 63.5733 317.436 63.76C317.223 63.92 316.996 64 316.756 64H311.476C310.97 64 310.623 63.88 310.436 63.64C310.276 63.3733 310.156 63.1333 310.076 62.92L307.396 54.12H303.276L301.396 63C301.343 63.2933 301.196 63.5333 300.956 63.72C300.716 63.9067 300.45 64 300.156 64H294.996ZM304.476 48.48H309.116C310.37 48.48 311.37 48.1733 312.116 47.56C312.863 46.9467 313.356 46.1067 313.596 45.04C313.81 44 313.676 43.16 313.196 42.52C312.743 41.88 311.863 41.56 310.556 41.56H305.956L304.476 48.48ZM322.093 64C321.826 64 321.613 63.9067 321.453 63.72C321.293 63.5333 321.239 63.2933 321.293 63L326.813 37C326.866 36.7067 327.013 36.4667 327.253 36.28C327.493 36.0933 327.746 36 328.013 36H346.693C346.986 36 347.199 36.0933 347.333 36.28C347.493 36.4667 347.546 36.7067 347.493 37L346.733 40.76C346.679 41.0533 346.533 41.2933 346.293 41.48C346.053 41.6667 345.786 41.76 345.493 41.76H332.733L331.573 47.16H343.412C343.706 47.16 343.933 47.2667 344.093 47.48C344.253 47.6667 344.306 47.9067 344.253 48.2L343.493 51.68C343.439 51.9467 343.293 52.1867 343.053 52.4C342.839 52.5867 342.586 52.68 342.293 52.68H330.413L329.253 58.24H342.293C342.586 58.24 342.799 58.3333 342.933 58.52C343.093 58.7067 343.146 58.9467 343.093 59.24L342.293 63C342.239 63.2933 342.093 63.5333 341.853 63.72C341.639 63.9067 341.386 64 341.093 64H322.093ZM357.52 64.4C354.854 64.4 352.667 64.0267 350.96 63.28C349.28 62.5333 348.067 61.5467 347.32 60.32C346.6 59.0667 346.347 57.7467 346.56 56.36C346.614 56.1467 346.72 55.96 346.88 55.8C347.067 55.6133 347.28 55.52 347.52 55.52H352.64C353.014 55.52 353.28 55.5867 353.44 55.72C353.6 55.8533 353.76 56.0267 353.92 56.24C354.027 56.64 354.24 57.0267 354.56 57.4C354.88 57.7733 355.32 58.08 355.88 58.32C356.467 58.5333 357.187 58.64 358.04 58.64C359.587 58.64 360.827 58.4 361.76 57.92C362.694 57.44 363.24 56.7867 363.4 55.96C363.56 55.3733 363.454 54.8933 363.08 54.52C362.734 54.12 362.107 53.7733 361.2 53.48C360.32 53.16 359.134 52.84 357.64 52.52C355.694 52.0933 354.094 51.5067 352.84 50.76C351.587 49.9867 350.707 49.0133 350.2 47.84C349.72 46.64 349.654 45.2133 350 43.56C350.534 41.1067 351.854 39.1733 353.96 37.76C356.067 36.32 358.8 35.6 362.16 35.6C363.894 35.6 365.427 35.84 366.76 36.32C368.12 36.8 369.254 37.44 370.16 38.24C371.067 39.04 371.72 39.8933 372.12 40.8C372.52 41.68 372.654 42.5467 372.52 43.4C372.494 43.6133 372.387 43.8133 372.2 44C372.014 44.16 371.8 44.24 371.56 44.24H366.2C365.934 44.24 365.694 44.1867 365.48 44.08C365.294 43.9733 365.134 43.8 365 43.56C365 42.9733 364.694 42.4667 364.08 42.04C363.467 41.5867 362.654 41.36 361.64 41.36C360.494 41.36 359.534 41.5733 358.76 42C357.987 42.4 357.507 43.0267 357.32 43.88C357.187 44.4133 357.254 44.88 357.52 45.28C357.814 45.68 358.347 46.0267 359.12 46.32C359.92 46.6133 361.014 46.92 362.4 47.24C364.747 47.6933 366.587 48.3067 367.92 49.08C369.254 49.8267 370.147 50.7733 370.6 51.92C371.08 53.0667 371.147 54.4667 370.8 56.12C370.214 58.84 368.787 60.9067 366.52 62.32C364.28 63.7067 361.28 64.4 357.52 64.4ZM384.005 64.4C381.338 64.4 379.151 64.0267 377.445 63.28C375.765 62.5333 374.551 61.5467 373.805 60.32C373.085 59.0667 372.831 57.7467 373.045 56.36C373.098 56.1467 373.205 55.96 373.365 55.8C373.551 55.6133 373.765 55.52 374.005 55.52H379.125C379.498 55.52 379.765 55.5867 379.925 55.72C380.085 55.8533 380.245 56.0267 380.405 56.24C380.511 56.64 380.725 57.0267 381.045 57.4C381.365 57.7733 381.805 58.08 382.365 58.32C382.951 58.5333 383.671 58.64 384.525 58.64C386.071 58.64 387.311 58.4 388.245 57.92C389.178 57.44 389.725 56.7867 389.885 55.96C390.045 55.3733 389.938 54.8933 389.565 54.52C389.218 54.12 388.591 53.7733 387.685 53.48C386.805 53.16 385.618 52.84 384.125 52.52C382.178 52.0933 380.578 51.5067 379.325 50.76C378.071 49.9867 377.191 49.0133 376.685 47.84C376.205 46.64 376.138 45.2133 376.485 43.56C377.018 41.1067 378.338 39.1733 380.445 37.76C382.551 36.32 385.285 35.6 388.645 35.6C390.378 35.6 391.911 35.84 393.245 36.32C394.605 36.8 395.738 37.44 396.645 38.24C397.551 39.04 398.205 39.8933 398.605 40.8C399.005 41.68 399.138 42.5467 399.005 43.4C398.978 43.6133 398.871 43.8133 398.685 44C398.498 44.16 398.285 44.24 398.045 44.24H392.685C392.418 44.24 392.178 44.1867 391.965 44.08C391.778 43.9733 391.618 43.8 391.485 43.56C391.485 42.9733 391.178 42.4667 390.565 42.04C389.951 41.5867 389.138 41.36 388.125 41.36C386.978 41.36 386.018 41.5733 385.245 42C384.471 42.4 383.991 43.0267 383.805 43.88C383.671 44.4133 383.738 44.88 384.005 45.28C384.298 45.68 384.831 46.0267 385.605 46.32C386.405 46.6133 387.498 46.92 388.885 47.24C391.231 47.6933 393.071 48.3067 394.405 49.08C395.738 49.8267 396.631 50.7733 397.085 51.92C397.565 53.0667 397.631 54.4667 397.285 56.12C396.698 58.84 395.271 60.9067 393.005 62.32C390.765 63.7067 387.765 64.4 384.005 64.4ZM214.28 96C214.013 96 213.8 95.9067 213.64 95.72C213.48 95.5333 213.427 95.2933 213.48 95L219 69C219.053 68.7067 219.2 68.4667 219.44 68.28C219.68 68.0933 219.933 68 220.2 68H225.48C225.773 68 226 68.0933 226.16 68.28C226.32 68.4667 226.373 68.7067 226.32 69L221.84 89.96H233.92C234.213 89.96 234.427 90.0667 234.56 90.28C234.72 90.4667 234.773 90.7067 234.72 91L233.88 95C233.827 95.2933 233.68 95.5333 233.44 95.72C233.227 95.9067 232.973 96 232.68 96H214.28ZM237.952 96C237.659 96 237.432 95.9067 237.272 95.72C237.112 95.5333 237.059 95.2933 237.112 95L242.672 69C242.725 68.7067 242.872 68.4667 243.112 68.28C243.352 68.0933 243.605 68 243.872 68H249.272C249.539 68 249.752 68.0933 249.912 68.28C250.072 68.4667 250.125 68.7067 250.072 69L244.512 95C244.459 95.2933 244.312 95.5333 244.072 95.72C243.859 95.9067 243.619 96 243.352 96H237.952ZM250.921 96C250.654 96 250.441 95.9067 250.281 95.72C250.121 95.5333 250.067 95.2933 250.121 95L255.641 69C255.694 68.7067 255.827 68.4667 256.041 68.28C256.281 68.0933 256.547 68 256.841 68H261.081C261.507 68 261.801 68.0933 261.961 68.28C262.121 68.4667 262.227 68.6267 262.281 68.76L268.801 84.24L272.041 69C272.094 68.7067 272.241 68.4667 272.481 68.28C272.721 68.0933 272.974 68 273.241 68H278.041C278.334 68 278.547 68.0933 278.681 68.28C278.841 68.4667 278.894 68.7067 278.841 69L273.321 95C273.267 95.2667 273.121 95.5067 272.881 95.72C272.667 95.9067 272.414 96 272.121 96H267.881C267.454 96 267.161 95.9067 267.001 95.72C266.841 95.5067 266.734 95.3467 266.681 95.24L260.081 80.32L256.921 95C256.867 95.2933 256.721 95.5333 256.481 95.72C256.267 95.9067 256.014 96 255.721 96H250.921ZM279.671 96C279.404 96 279.191 95.9067 279.031 95.72C278.871 95.5333 278.817 95.2933 278.871 95L284.391 69C284.444 68.7067 284.591 68.4667 284.831 68.28C285.071 68.0933 285.324 68 285.591 68H304.271C304.564 68 304.777 68.0933 304.911 68.28C305.071 68.4667 305.124 68.7067 305.071 69L304.311 72.76C304.257 73.0533 304.111 73.2933 303.871 73.48C303.631 73.6667 303.364 73.76 303.071 73.76H290.311L289.151 79.16H300.991C301.284 79.16 301.511 79.2667 301.671 79.48C301.831 79.6667 301.884 79.9067 301.831 80.2L301.071 83.68C301.017 83.9467 300.871 84.1867 300.631 84.4C300.417 84.5867 300.164 84.68 299.871 84.68H287.991L286.831 90.24H299.871C300.164 90.24 300.377 90.3333 300.511 90.52C300.671 90.7067 300.724 90.9467 300.671 91.24L299.871 95C299.817 95.2933 299.671 95.5333 299.431 95.72C299.217 95.9067 298.964 96 298.671 96H279.671ZM302.658 96C302.338 96 302.112 95.8667 301.978 95.6C301.845 95.3333 301.858 95.0667 302.018 94.8L316.858 69.12C317.018 68.8267 317.245 68.5733 317.538 68.36C317.832 68.12 318.205 68 318.658 68H324.818C325.272 68 325.592 68.12 325.778 68.36C325.992 68.5733 326.112 68.8267 326.138 69.12L330.058 94.8C330.138 95.1733 330.072 95.4667 329.858 95.68C329.645 95.8933 329.405 96 329.138 96H324.298C323.898 96 323.605 95.9067 323.418 95.72C323.258 95.5333 323.152 95.32 323.098 95.08L322.418 91.08H311.738L309.338 95.16C309.205 95.3467 309.018 95.5333 308.778 95.72C308.565 95.9067 308.258 96 307.858 96H302.658ZM314.578 85.32H322.018L320.538 74.76L314.578 85.32Z" fill="white"/>
<path d="M342.067 96C341.773 96 341.547 95.9067 341.387 95.72C341.253 95.5333 341.213 95.2933 341.267 95L346.787 69C346.84 68.7067 346.987 68.4667 347.227 68.28C347.467 68.0933 347.733 68 348.027 68H358.907C362.347 68 364.88 68.8 366.507 70.4C368.16 71.9733 368.68 74.2133 368.067 77.12C367.667 79.0133 366.867 80.6133 365.667 81.92C364.493 83.2267 363.093 84.2133 361.467 84.88L364.867 94.72C364.893 94.8 364.907 94.8667 364.907 94.92C364.907 94.9733 364.893 95.0533 364.867 95.16C364.84 95.3733 364.72 95.5733 364.507 95.76C364.293 95.92 364.067 96 363.827 96H358.547C358.04 96 357.693 95.88 357.507 95.64C357.347 95.3733 357.227 95.1333 357.147 94.92L354.467 86.12H350.347L348.467 95C348.413 95.2933 348.267 95.5333 348.027 95.72C347.787 95.9067 347.52 96 347.227 96H342.067ZM351.547 80.48H356.187C357.44 80.48 358.44 80.1733 359.187 79.56C359.933 78.9467 360.427 78.1067 360.667 77.04C360.88 76 360.747 75.16 360.267 74.52C359.813 73.88 358.933 73.56 357.627 73.56H353.027L351.547 80.48ZM380.006 96.4C378.326 96.4 376.766 96.1733 375.326 95.72C373.886 95.2667 372.672 94.5867 371.686 93.68C370.699 92.7733 369.992 91.64 369.566 90.28C369.166 88.92 369.112 87.3333 369.406 85.52C369.619 84.3733 369.846 83.2267 370.086 82.08C370.352 80.9333 370.619 79.7733 370.886 78.6C371.766 75 373.352 72.2667 375.646 70.4C377.939 68.5333 381.032 67.6 384.926 67.6C386.606 67.6 388.152 67.84 389.566 68.32C391.006 68.7733 392.219 69.4667 393.206 70.4C394.219 71.3333 394.926 72.48 395.326 73.84C395.752 75.2 395.806 76.7867 395.486 78.6C395.299 79.7733 395.072 80.9333 394.806 82.08C394.566 83.2267 394.312 84.3733 394.046 85.52C393.139 89.1733 391.539 91.9067 389.246 93.72C386.952 95.5067 383.872 96.4 380.006 96.4ZM380.526 90.64C381.966 90.64 383.232 90.2133 384.326 89.36C385.419 88.5067 386.192 87.1467 386.646 85.28C386.939 84.1067 387.192 83 387.406 81.96C387.646 80.92 387.859 79.84 388.046 78.72C388.392 76.8533 388.232 75.4933 387.566 74.64C386.899 73.7867 385.846 73.36 384.406 73.36C382.966 73.36 381.699 73.7867 380.606 74.64C379.539 75.4933 378.779 76.8533 378.326 78.72C378.032 79.84 377.766 80.92 377.526 81.96C377.312 83 377.099 84.1067 376.886 85.28C376.566 87.1467 376.726 88.5067 377.366 89.36C378.006 90.2133 379.059 90.64 380.526 90.64ZM406.842 96.4C405.482 96.4 404.122 96.2133 402.762 95.84C401.429 95.44 400.229 94.8533 399.162 94.08C398.096 93.3067 397.296 92.3467 396.762 91.2C396.229 90.0533 396.096 88.72 396.362 87.2C396.416 86.96 396.536 86.76 396.722 86.6C396.909 86.4133 397.122 86.32 397.362 86.32H402.802C403.176 86.32 403.442 86.4133 403.602 86.6C403.762 86.7867 403.869 87.0667 403.922 87.44C403.922 88.56 404.202 89.3733 404.762 89.88C405.322 90.3867 406.176 90.64 407.322 90.64C408.762 90.64 409.922 90.2133 410.802 89.36C411.682 88.48 412.296 87.2 412.642 85.52L415.082 73.96H402.162C401.869 73.96 401.642 73.8667 401.482 73.68C401.349 73.4933 401.309 73.2533 401.362 72.96L402.202 69C402.256 68.7067 402.389 68.4667 402.602 68.28C402.842 68.0933 403.109 68 403.402 68H422.762C423.056 68 423.269 68.0933 423.402 68.28C423.562 68.4667 423.616 68.7067 423.562 69L420.002 85.72C419.549 88.04 418.762 90 417.642 91.6C416.549 93.1733 415.109 94.3733 413.322 95.2C411.562 96 409.402 96.4 406.842 96.4ZM421.213 96C420.893 96 420.666 95.8667 420.533 95.6C420.4 95.3333 420.413 95.0667 420.573 94.8L435.413 69.12C435.573 68.8267 435.8 68.5733 436.093 68.36C436.386 68.12 436.76 68 437.213 68H443.373C443.826 68 444.146 68.12 444.333 68.36C444.546 68.5733 444.666 68.8267 444.693 69.12L448.613 94.8C448.693 95.1733 448.626 95.4667 448.413 95.68C448.2 95.8933 447.96 96 447.693 96H442.853C442.453 96 442.16 95.9067 441.973 95.72C441.813 95.5333 441.706 95.32 441.653 95.08L440.973 91.08H430.293L427.893 95.16C427.76 95.3467 427.573 95.5333 427.333 95.72C427.12 95.9067 426.813 96 426.413 96H421.213ZM433.133 85.32H440.573L439.093 74.76L433.133 85.32Z" fill="#B81C2E"/>
</svg>
