<svg width="91" height="28" viewBox="0 0 91 28" fill="none" xmlns="http://www.w3.org/2000/svg">
<path d="M0 18.5L2 9.5L91 9.5L88.5 18.5L0 18.5Z" fill="#B81C2E"/>
<path d="M33.82 28C33.5533 28 33.34 27.9067 33.18 27.72C33.02 27.5333 32.9667 27.2933 33.02 27L38.5399 1C38.5933 0.706668 38.7399 0.466667 38.9799 0.280001C39.2199 0.0933332 39.4733 0 39.7399 0H45.0199C45.3133 0 45.5399 0.0933332 45.6999 0.280001C45.8599 0.466667 45.9133 0.706668 45.8599 1L41.38 21.96H53.4599C53.7532 21.96 53.9666 22.0667 54.0999 22.28C54.2599 22.4667 54.3132 22.7067 54.2599 23L53.4199 27C53.3666 27.2933 53.2199 27.5333 52.9799 27.72C52.7666 27.9067 52.5133 28 52.2199 28H33.82Z" fill="#1A1410"/>
<path d="M33.82 28C33.5533 28 33.34 27.9067 33.18 27.72C33.02 27.5333 32.9667 27.2933 33.02 27L38.5399 1C38.5933 0.706668 38.7399 0.466667 38.9799 0.280001C39.2199 0.0933332 39.4733 0 39.7399 0H45.0199C45.3133 0 45.5399 0.0933332 45.6999 0.280001C45.8599 0.466667 45.9133 0.706668 45.8599 1L41.38 21.96H53.4599C53.7532 21.96 53.9666 22.0667 54.0999 22.28C54.2599 22.4667 54.3132 22.7067 54.2599 23L53.4199 27C53.3666 27.2933 53.2199 27.5333 52.9799 27.72C52.7666 27.9067 52.5133 28 52.2199 28H33.82Z" fill="#1A1410"/>
<path d="M55.8229 28C55.5295 28 55.3029 27.9067 55.1429 27.72C55.0095 27.5333 54.9695 27.2933 55.0229 27L60.5429 1C60.5962 0.706666 60.7429 0.466665 60.9829 0.279999C61.2229 0.0933313 61.4895 0 61.7829 0H72.6629C76.1029 0 78.6362 0.799994 80.2629 2.39999C81.9162 3.97333 82.4362 6.21333 81.8229 9.12C81.4229 11.0133 80.6229 12.6133 79.4229 13.92C78.2495 15.2267 76.8495 16.2133 75.2229 16.88L78.6229 26.72C78.6495 26.8 78.6629 26.8667 78.6629 26.92C78.6629 26.9733 78.6495 27.0533 78.6229 27.16C78.5962 27.3733 78.4762 27.5733 78.2629 27.76C78.0495 27.92 77.8229 28 77.5829 28H72.3029C71.7962 28 71.4495 27.88 71.2629 27.64C71.1029 27.3733 70.9829 27.1333 70.9029 26.92L68.2229 18.12H64.1029L62.2229 27C62.1695 27.2933 62.0229 27.5333 61.7829 27.72C61.5429 27.9067 61.2762 28 60.9829 28H55.8229ZM65.3029 12.48H69.9429C71.1962 12.48 72.1962 12.1733 72.9429 11.56C73.6895 10.9467 74.1829 10.1067 74.4229 9.04001C74.6362 8.00001 74.5029 7.16 74.0229 6.52C73.5695 5.88 72.6895 5.56 71.3829 5.56H66.7829L65.3029 12.48Z" fill="#1A1410"/>
<path d="M55.8229 28C55.5295 28 55.3029 27.9067 55.1429 27.72C55.0095 27.5333 54.9695 27.2933 55.0229 27L60.5429 1C60.5962 0.706666 60.7429 0.466665 60.9829 0.279999C61.2229 0.0933313 61.4895 0 61.7829 0H72.6629C76.1029 0 78.6362 0.799994 80.2629 2.39999C81.9162 3.97333 82.4362 6.21333 81.8229 9.12C81.4229 11.0133 80.6229 12.6133 79.4229 13.92C78.2495 15.2267 76.8495 16.2133 75.2229 16.88L78.6229 26.72C78.6495 26.8 78.6629 26.8667 78.6629 26.92C78.6629 26.9733 78.6495 27.0533 78.6229 27.16C78.5962 27.3733 78.4762 27.5733 78.2629 27.76C78.0495 27.92 77.8229 28 77.5829 28H72.3029C71.7962 28 71.4495 27.88 71.2629 27.64C71.1029 27.3733 70.9829 27.1333 70.9029 26.92L68.2229 18.12H64.1029L62.2229 27C62.1695 27.2933 62.0229 27.5333 61.7829 27.72C61.5429 27.9067 61.2762 28 60.9829 28H55.8229ZM65.3029 12.48H69.9429C71.1962 12.48 72.1962 12.1733 72.9429 11.56C73.6895 10.9467 74.1829 10.1067 74.4229 9.04001C74.6362 8.00001 74.5029 7.16 74.0229 6.52C73.5695 5.88 72.6895 5.56 71.3829 5.56H66.7829L65.3029 12.48Z" fill="#1A1410"/>
<path d="M10.3 28C10.0333 28 9.81997 27.9067 9.65997 27.72C9.49997 27.5333 9.44664 27.2933 9.49997 27L15.02 1C15.0733 0.706665 15.22 0.466665 15.46 0.279999C15.7 0.0933318 15.9533 -1.90735e-06 16.22 -1.90735e-06H34.9C35.1933 -1.90735e-06 35.4066 0.0933318 35.54 0.279999C35.7 0.466665 35.7533 0.706665 35.7 1L34.94 4.76C34.8866 5.05333 34.74 5.29333 34.5 5.48C34.26 5.66666 33.9933 5.76 33.7 5.76H20.94L19.78 11.16H31.62C31.9133 11.16 32.14 11.2667 32.3 11.48C32.46 11.6667 32.5133 11.9067 32.46 12.2L31.7 15.68C31.6466 15.9467 31.5 16.1867 31.26 16.4C31.0466 16.5867 30.7933 16.68 30.5 16.68H18.62L17.46 22.24H30.5C30.7933 22.24 31.0066 22.3333 31.14 22.52C31.3 22.7067 31.3533 22.9467 31.3 23.24L30.5 27C30.4466 27.2933 30.3 27.5333 30.06 27.72C29.8466 27.9067 29.5933 28 29.3 28H10.3Z" fill="#1A1410"/>
</svg>
